<?xml version="1.0" encoding="UTF-8"?>
<svg version="1.1" xmlns="http://www.w3.org/2000/svg" width="393" height="300">
<path d="M0 0 C1.13348373 -0.01582626 2.26696747 -0.03165253 3.43479919 -0.04795837 C4.67985229 -0.06007355 5.9249054 -0.07218872 7.20768738 -0.08467102 C8.51877975 -0.10087997 9.82987213 -0.11708893 11.18069458 -0.13378906 C23.33111813 -0.27906924 35.48257242 -0.35373339 47.63368702 -0.41270733 C56.59309716 -0.45704454 65.55095065 -0.53374877 74.50966626 -0.65429181 C80.83100696 -0.73642001 87.15192893 -0.77896269 93.47377986 -0.79400951 C97.23565774 -0.80406511 100.99557875 -0.83044447 104.75686073 -0.90032005 C122.39159433 -1.21374599 136.8337991 0.05279875 152.45047569 8.98915672 C155.38207386 10.66387094 158.39372275 12.13587911 161.42326355 13.62504578 C163.03201355 14.44488953 163.03201355 14.44488953 164.67326355 15.28129578 C169.85566096 17.87249448 175.14904316 20.22833794 180.42326355 22.62504578 C187.74222705 25.95500871 195.00919457 29.34070152 202.17619324 32.98588562 C208.79327171 36.3416656 215.48460696 39.5398895 222.17326355 42.75004578 C224.51834277 43.88149996 226.86339563 45.01300876 229.2084198 46.14457703 C232.80795106 47.87913184 236.41257186 49.59587848 240.0443573 51.26176453 C248.71576138 55.3362797 258.62143122 61.03231549 262.98576355 70.05473328 C264.91984622 77.38813008 264.78433161 84.94912088 261.04826355 91.62504578 C254.58032978 101.66830961 243.9264112 106.40146412 233.57951355 111.46488953 C232.01449214 112.2417868 230.45000794 113.0197671 228.8860321 113.79876709 C224.78094959 115.83991639 220.66888493 117.86658213 216.55509949 119.89012146 C212.41836763 121.92796952 208.28824416 123.97911354 204.15763855 126.02934265 C197.36423975 129.39956176 190.5655823 132.75895404 183.7641325 136.11288929 C178.10694205 138.90540818 172.46272202 141.72347319 166.82495117 144.55498409 C161.99954244 146.97519174 157.13857873 149.30410613 152.23576355 151.56254578 C146.74222605 154.09329852 146.74222605 154.09329852 141.54826355 157.18754578 C137.62558729 158.0415028 133.87566333 158.3142465 129.86933899 158.32125854 C128.76198395 158.32552353 127.65462891 158.32978851 126.51371765 158.33418274 C125.31356018 158.33372955 124.11340271 158.33327637 122.87687683 158.33280945 C121.6013797 158.33616806 120.32588257 158.33952667 119.01173401 158.34298706 C115.52405525 158.3517943 112.03640106 158.35416378 108.54871225 158.35480285 C106.36663338 158.35551516 104.1845607 158.3576529 102.00248337 158.36030006 C94.38118343 158.36954234 86.75990094 158.37363631 79.13859558 158.37284851 C72.04835705 158.37224788 64.95819463 158.38279971 57.86797535 158.39859217 C51.76841314 158.41169119 45.66887574 158.41703142 39.56929958 158.4163931 C35.93169721 158.41613883 32.29416254 158.41895099 28.65657425 158.42957115 C24.59714344 158.44110022 20.53788205 158.43649089 16.47843933 158.4304657 C14.68427582 158.43889496 14.68427582 158.43889496 12.85386658 158.44749451 C4.83803742 158.41728564 -1.96309365 157.63266364 -9.26423645 154.08598328 C-10.11372864 153.67735046 -10.96322083 153.26871765 -11.8384552 152.84770203 C-12.70083801 152.42360046 -13.56322083 151.9994989 -14.45173645 151.56254578 C-15.28318176 151.16164734 -16.11462708 150.7607489 -16.9712677 150.34770203 C-22.37462661 147.73108294 -27.74157692 145.04283882 -33.10798645 142.35160828 C-41.35170596 138.21860439 -49.64621029 134.19454638 -57.95173645 130.18754578 C-60.71277008 128.85548526 -63.47330697 127.52240968 -66.23298645 126.18754578 C-66.91073624 125.85972107 -67.58848602 125.53189636 -68.28677368 125.19413757 C-73.14745028 122.83632375 -77.98101891 120.4275517 -82.8072052 118.00004578 C-88.08493943 115.34594466 -93.394301 112.79237341 -98.76765442 110.33598328 C-124.1206528 98.67350485 -124.1206528 98.67350485 -129.45173645 86.18754578 C-130.43250755 80.46638103 -130.59450348 74.59256257 -127.88923645 69.31254578 C-126.68267395 67.76567078 -126.68267395 67.76567078 -125.45173645 66.18754578 C-125.04697083 65.65258484 -124.6422052 65.1176239 -124.22517395 64.56645203 C-114.2240866 52.98765303 -96.76799783 46.730958 -83.3931427 40.13676453 C-78.05787791 37.50218244 -72.77358992 34.782709 -67.51423645 32.00004578 C-66.74700256 31.59415222 -65.97976868 31.18825867 -65.18928528 30.77006531 C-62.2062518 29.18816811 -59.22635965 27.60041514 -56.24665833 26.01225281 C-48.04682166 21.64303689 -39.82801639 17.34060744 -31.49909973 13.2219696 C-25.58620592 10.28608929 -19.75755919 7.19936479 -13.94587708 4.06840515 C-9.04587898 1.44290474 -5.54196146 0.06779897 0 0 Z M-19.45173645 16.18754578 C-21.41561447 17.22755898 -23.39020603 18.24773005 -25.3775177 19.24223328 C-27.1738899 20.18080925 -28.96946311 21.12091601 -30.76423645 22.06254578 C-32.22144104 22.82498596 -32.22144104 22.82498596 -33.70808411 23.60282898 C-36.62363401 25.12917149 -39.53793727 26.65786417 -42.45173645 28.18754578 C-43.74361877 28.86551208 -43.74361877 28.86551208 -45.06159973 29.55717468 C-51.99780041 33.19885021 -58.93276488 36.84276288 -65.8462677 40.52738953 C-72.67541252 44.16439959 -79.51985252 47.74974061 -86.45173645 51.18754578 C-92.15699253 54.02810145 -97.85282341 56.88542218 -103.51423645 59.81254578 C-104.20452942 60.16059265 -104.89482239 60.50863953 -105.60603333 60.86723328 C-111.84369407 64.12272126 -118.72082113 68.44057852 -121.45173645 75.18754578 C-122.20116568 80.26701056 -121.93947837 83.06281932 -119.01423645 87.31254578 C-113.61835129 93.71782284 -106.62545766 97.17448653 -99.22517395 100.84379578 C-98.52920105 101.19027161 -97.83322815 101.53674744 -97.11616516 101.89372253 C-89.08840189 105.88051209 -81.02083858 109.78531875 -72.95173645 113.68754578 C-63.65300199 118.1844244 -54.37263981 122.71084079 -45.1413269 127.34475708 C-39.08873488 130.37919509 -32.9974007 133.3290954 -26.88923645 136.25004578 C-25.89472473 136.72764343 -24.90021301 137.20524109 -23.87556458 137.6973114 C-21.88065089 138.65328731 -19.88162259 139.60073637 -17.87808228 140.53849792 C-15.59657014 141.63655483 -13.33832517 142.78434206 -11.10668945 143.98051453 C-1.90849242 148.81388114 5.95930127 150.25102559 16.43107605 150.15238953 C17.90308155 150.15967706 19.37507865 150.16888018 20.84706116 150.17987061 C23.90471787 150.19455287 26.9609338 150.18400212 30.01847839 150.15507507 C33.90024625 150.12072224 37.77800329 150.15426313 41.65944099 150.20728207 C44.6900904 150.24037075 47.71980865 150.23512209 50.75056076 150.21913338 C52.18004506 150.21635123 53.60961138 150.22533659 55.03892899 150.24734306 C66.43664711 150.3923428 72.55070923 147.67215376 81.54826355 141.18754578 C82.78391373 140.42514773 84.02860118 139.67674999 85.28947449 138.95683289 C87.4376489 137.70665145 89.58492363 136.45492363 91.73161316 135.20219421 C92.31280914 134.86377502 92.89400513 134.52535583 93.49281311 134.17668152 C104.56270941 127.7287069 115.58304763 121.20332496 126.55363464 114.58744812 C132.52854144 110.98709735 138.52987643 107.4378485 144.55680847 103.92533875 C161.41424139 95.35695148 161.41424139 95.35695148 172.54826355 81.18754578 C172.78957723 76.11995851 171.98066315 73.22457729 168.92326355 69.18754578 C153.99432623 53.7779988 123.68688317 44.22078583 102.67326355 43.81254578 C97.78753146 43.8602753 97.78753146 43.8602753 93.54826355 46.18754578 C94.56146667 47.02285828 94.56146667 47.02285828 95.59513855 47.87504578 C102.62733791 53.89103135 107.93090926 59.35087556 108.7084198 68.98442078 C108.0153989 78.51768392 102.97275019 85.19240899 96.17326355 91.33207703 C89.43955449 97.07726194 82.30256284 101.93090513 74.54826355 106.18754578 C73.85200867 106.56975281 73.15575378 106.95195984 72.43840027 107.3457489 C51.71750793 118.46802583 28.32145874 123.11882099 5.3021698 116.71098328 C-10.31651889 111.9203061 -25.28131941 105.27360194 -39.45173645 97.18754578 C-40.21743958 96.82145203 -40.9831427 96.45535828 -41.77204895 96.07817078 C-44.08355512 94.85253495 -44.45288991 93.58477747 -45.45173645 91.18754578 C-45.98798645 90.32129578 -46.52423645 89.45504578 -47.07673645 88.56254578 C-49.37379715 82.92430589 -49.34897382 77.56522479 -47.20173645 71.87504578 C-43.85325966 66.73274214 -40.68632345 63.39037108 -35.45173645 60.12504578 C-34.85143616 59.74855896 -34.25113586 59.37207214 -33.63264465 58.98417664 C-31.58033962 57.70512917 -29.51786159 56.44414191 -27.45173645 55.18754578 C-26.68136047 54.71864929 -25.9109845 54.24975281 -25.11726379 53.76664734 C-15.87442599 48.1583002 -6.5694959 42.65607069 2.75798035 37.18998718 C11.40454477 32.11367529 19.99158867 26.93777987 28.5834198 21.76957703 C32.20955528 19.58882825 35.84047781 17.41695924 39.4818573 15.26176453 C40.1919696 14.84032166 40.90208191 14.41887878 41.63371277 13.98466492 C42.91613345 13.22436587 44.20022016 12.4668673 45.48625183 11.71269226 C46.85688546 10.89833668 48.20582179 10.04758163 49.54826355 9.18754578 C49.54826355 8.85754578 49.54826355 8.52754578 49.54826355 8.18754578 C42.29371702 7.98247847 35.0399334 7.84369016 27.78312683 7.74809265 C25.32157976 7.70818785 22.86021823 7.65384236 20.39933777 7.58403015 C4.90064853 7.15578518 -6.31616539 7.71285846 -19.45173645 16.18754578 Z M37.96965027 23.14555359 C34.7048927 25.89877322 31.20699692 27.93635735 27.48576355 30.00004578 C25.79140182 31.02176159 24.09704798 32.04349179 22.4037323 33.06694031 C18.60145605 35.36331504 14.79360689 37.65041837 10.98576355 39.93754578 C10.15020935 40.43979675 9.31465515 40.94204773 8.45378113 41.45951843 C2.99087233 44.73798927 -2.49210163 47.98048063 -7.98664856 51.20561218 C-28.58436263 61.43202368 -28.58436263 61.43202368 -42.51423645 78.18754578 C-42.43304182 82.08488788 -41.65768066 85.00597405 -39.45173645 88.18754578 C-33.85637495 93.45625439 -27.01582523 96.58264653 -20.07673645 99.68754578 C-19.02832581 100.16240417 -17.97991516 100.63726257 -16.8997345 101.12651062 C1.20744654 109.32196129 1.20744654 109.32196129 20.6302948 112.28520203 C21.56164246 112.28197937 22.49299011 112.27875671 23.45256042 112.2754364 C24.41226746 112.2670575 25.37197449 112.25867859 26.36076355 112.25004578 C27.33980652 112.24553406 28.31884949 112.24102234 29.32756042 112.2363739 C31.73452466 112.22463261 34.14136212 112.20820997 36.54826355 112.18754578 C35.42484558 111.07186218 35.42484558 111.07186218 34.2787323 109.93363953 C27.3098436 102.92487163 22.63793944 98.04949638 22.17326355 87.81254578 C22.40556984 78.75260033 26.74555909 73.22385035 32.82170105 66.76176453 C53.70438337 47.04587964 80.81334959 37.30164996 109.2084198 37.81645203 C123.63983304 38.42125846 136.47375608 43.9706245 149.3490448 50.1348114 C151.54321707 51.1851301 153.74819331 52.20991735 155.95451355 53.23442078 C164.42191836 57.23573577 171.85811237 61.22890513 177.54826355 68.87504578 C179.24688152 74.50171779 179.72458602 80.69652424 177.82170105 86.34379578 C170.57487718 99.7769327 152.14098292 107.02273399 139.50627136 114.44828796 C134.70412359 117.27186841 129.90714873 120.10419054 125.11076355 122.93754578 C124.18972839 123.48144958 123.26869324 124.02535339 122.31974792 124.58573914 C116.52809366 128.00879001 110.74970235 131.45276392 104.9896698 134.92875671 C101.62609199 136.95480442 98.24707276 138.95130256 94.85295105 140.92582703 C93.66922913 141.61575745 93.66922913 141.61575745 92.46159363 142.31962585 C90.91903411 143.2172228 89.37465432 144.11170028 87.82829285 145.00273132 C86.05203765 146.03692503 84.29757854 147.10840899 82.54826355 148.18754578 C82.54826355 148.51754578 82.54826355 148.84754578 82.54826355 149.18754578 C125.00754069 153.53394908 152.92600794 146.14852999 190.2872299 125.5892458 C196.28990256 122.29414002 202.37271469 119.16025412 208.45962536 116.02444363 C217.93337669 111.1317703 227.37485588 106.17200411 236.72819519 101.05278015 C237.6249295 100.57660248 238.52166382 100.1004248 239.4455719 99.6098175 C246.4195409 95.7343326 252.40255259 90.71808343 255.54826355 83.18754578 C255.98943749 78.62874835 256.06350394 76.23949491 254.04826355 72.12504578 C246.27039382 62.98604884 236.9646771 58.58950642 226.29826355 53.56254578 C224.64074483 52.77012098 222.98368552 51.97673457 221.32707214 51.18241882 C216.41011918 48.83087553 211.48139439 46.50492741 206.54826355 44.18754578 C205.83376038 43.85164429 205.1192572 43.5157428 204.38310242 43.16966248 C195.79089962 39.13342133 187.17501777 35.14939548 178.54826355 31.18754578 C171.60344855 27.990364 164.67039875 24.78398844 157.85409546 21.31892395 C155.86397666 20.31474017 153.86453693 19.33218267 151.86247253 18.35209656 C149.15732525 17.01987644 146.53417465 15.61380574 143.92961121 14.0957489 C130.10300818 6.50666391 115.27797317 6.56349665 99.9079361 6.61800766 C97.71684011 6.62510709 95.52603715 6.61860976 93.33494568 6.61164856 C71.77582182 6.61113637 54.80491771 8.67307666 37.96965027 23.14555359 Z M52.54826355 60.18754578 C43.25079815 66.25783587 31.46737201 74.21586447 28.73576355 85.56254578 C28.45668071 90.95814744 29.50999213 94.66258462 32.54826355 99.12504578 C33.20826355 99.80567078 33.86826355 100.48629578 34.54826355 101.18754578 C35.20826355 101.18754578 35.86826355 101.18754578 36.54826355 101.18754578 C36.54826355 101.84754578 36.54826355 102.50754578 36.54826355 103.18754578 C38.2298985 104.74153794 38.2298985 104.74153794 40.36076355 106.25004578 C41.06845886 106.77727234 41.77615417 107.3044989 42.5052948 107.84770203 C44.86119376 109.39277534 46.61305601 110.32277945 49.4662323 109.91020203 C67.40953234 104.69089444 90.67839943 92.7654557 100.36076355 76.06254578 C102.09622258 71.67916987 102.14050258 67.62251399 100.54826355 63.18754578 C98.5538642 60.13170139 96.19479672 57.68675702 93.54826355 55.18754578 C92.95142761 54.60617859 92.35459167 54.0248114 91.7396698 53.42582703 C79.50105559 42.16848256 64.65970342 52.79818442 52.54826355 60.18754578 Z " fill="#F8FBFC" transform="translate(129.4517364501953,48.81245422363281)"/>
<path d="M0 0 C1.03942623 -0.00260775 2.07885246 -0.00521549 3.14977646 -0.00790226 C4.30568409 -0.00567154 5.46159172 -0.00344082 6.65252686 -0.0011425 C7.86957432 -0.00270249 9.08662178 -0.00426248 10.34054947 -0.00586975 C13.73404787 -0.00918312 17.12749142 -0.0079705 20.52098656 -0.00488353 C24.17473928 -0.00263135 27.82848702 -0.00610813 31.48223877 -0.00886345 C38.64600134 -0.0133221 45.80975347 -0.01234426 52.97351646 -0.00945081 C58.79299379 -0.00719715 64.61246817 -0.00688409 70.4319458 -0.00797462 C71.25857924 -0.00812786 72.08521267 -0.00828109 72.93689561 -0.00843897 C74.61591435 -0.00875868 76.29493308 -0.00908289 77.97395182 -0.00941156 C93.73721014 -0.01226663 109.50046266 -0.0089789 125.26372004 -0.00361119 C138.80445803 0.00085687 152.34518745 0.00008095 165.88592529 -0.00452995 C181.59079505 -0.00987524 197.29565971 -0.01199194 213.00053024 -0.00891769 C214.67355092 -0.00859912 216.3465716 -0.00828475 218.01959229 -0.00797462 C218.84286144 -0.00782035 219.6661306 -0.00766607 220.51434731 -0.00750712 C226.33030586 -0.00664183 232.14626119 -0.00810511 237.96221924 -0.01045418 C245.04494316 -0.01325187 252.127656 -0.01251457 259.21037865 -0.00717343 C262.82764166 -0.004536 266.44488615 -0.00353206 270.06214905 -0.00682259 C273.97444704 -0.01032781 277.88671435 -0.00615722 281.79901123 -0.0011425 C283.53287268 -0.00448858 283.53287268 -0.00448858 285.30176163 -0.00790226 C286.34118786 -0.00529452 287.38061409 -0.00268677 288.45153809 0 C289.8080353 0.00024353 289.8080353 0.00024353 291.19193649 0.00049198 C293.22576904 0.12584114 293.22576904 0.12584114 294.22576904 1.12584114 C294.35076904 4.12584114 294.35076904 4.12584114 294.22576904 7.12584114 C292.58493122 8.76667896 290.71434165 8.25127605 288.45153809 8.25168228 C287.41211185 8.25429003 286.37268562 8.25689778 285.30176163 8.25958455 C284.145854 8.25735382 282.98994637 8.2551231 281.79901123 8.25282478 C279.97344004 8.25516477 279.97344004 8.25516477 278.11098862 8.25755203 C274.71749022 8.2608654 271.32404667 8.25965278 267.93055153 8.25656581 C264.27679881 8.25431363 260.62305106 8.25779041 256.96929932 8.26054573 C249.80553674 8.26500438 242.64178461 8.26402654 235.47802162 8.26113309 C229.6585443 8.25887943 223.83906992 8.25856637 218.01959229 8.25965691 C217.19295885 8.25981014 216.36632541 8.25996337 215.51464248 8.26012125 C213.83562374 8.26044096 212.156605 8.26076517 210.47758627 8.26109384 C194.71432794 8.26394891 178.95107542 8.26066119 163.18781805 8.25529347 C149.64708006 8.25082541 136.10635063 8.25160134 122.56561279 8.25621223 C106.86074304 8.26155752 91.15587838 8.26367422 75.45100784 8.26059997 C73.77798716 8.2602814 72.10496648 8.25996703 70.4319458 8.25965691 C69.60867664 8.25950263 68.78540748 8.25934836 67.93719077 8.2591894 C62.12123222 8.25832411 56.3052769 8.25978739 50.48931885 8.26213646 C43.40659492 8.26493415 36.32388209 8.26419685 29.24115944 8.25885572 C25.62389643 8.25621828 22.00665194 8.25521434 18.38938904 8.25850487 C14.47709105 8.26201009 10.56482374 8.2578395 6.65252686 8.25282478 C4.91866541 8.25617087 4.91866541 8.25617087 3.14977646 8.25958455 C2.11035023 8.2569768 1.070924 8.25436905 0 8.25168228 C-0.90433147 8.25151993 -1.80866295 8.25135758 -2.74039841 8.2511903 C-4.77423096 8.12584114 -4.77423096 8.12584114 -5.77423096 7.12584114 C-5.89923096 4.12584114 -5.89923096 4.12584114 -5.77423096 1.12584114 C-4.13339314 -0.51499668 -2.26280356 0.00040624 0 0 Z " fill="#F3F8FA" transform="translate(54.77423095703125,225.87415885925293)"/>
<path d="M0 0 C1.03942623 -0.00260775 2.07885246 -0.00521549 3.14977646 -0.00790226 C4.30568409 -0.00567154 5.46159172 -0.00344082 6.65252686 -0.0011425 C7.86957432 -0.00270249 9.08662178 -0.00426248 10.34054947 -0.00586975 C13.73404787 -0.00918312 17.12749142 -0.0079705 20.52098656 -0.00488353 C24.17473928 -0.00263135 27.82848702 -0.00610813 31.48223877 -0.00886345 C38.64600134 -0.0133221 45.80975347 -0.01234426 52.97351646 -0.00945081 C58.79299379 -0.00719715 64.61246817 -0.00688409 70.4319458 -0.00797462 C71.25857924 -0.00812786 72.08521267 -0.00828109 72.93689561 -0.00843897 C74.61591435 -0.00875868 76.29493308 -0.00908289 77.97395182 -0.00941156 C93.73721014 -0.01226663 109.50046266 -0.0089789 125.26372004 -0.00361119 C138.80445803 0.00085687 152.34518745 0.00008095 165.88592529 -0.00452995 C181.59079505 -0.00987524 197.29565971 -0.01199194 213.00053024 -0.00891769 C214.67355092 -0.00859912 216.3465716 -0.00828475 218.01959229 -0.00797462 C218.84286144 -0.00782035 219.6661306 -0.00766607 220.51434731 -0.00750712 C226.33030586 -0.00664183 232.14626119 -0.00810511 237.96221924 -0.01045418 C245.04494316 -0.01325187 252.127656 -0.01251457 259.21037865 -0.00717343 C262.82764166 -0.004536 266.44488615 -0.00353206 270.06214905 -0.00682259 C273.97444704 -0.01032781 277.88671435 -0.00615722 281.79901123 -0.0011425 C283.53287268 -0.00448858 283.53287268 -0.00448858 285.30176163 -0.00790226 C286.34118786 -0.00529452 287.38061409 -0.00268677 288.45153809 0 C289.8080353 0.00024353 289.8080353 0.00024353 291.19193649 0.00049198 C293.22576904 0.12584114 293.22576904 0.12584114 294.22576904 1.12584114 C294.35076904 4.12584114 294.35076904 4.12584114 294.22576904 7.12584114 C292.58493122 8.76667896 290.71434165 8.25127605 288.45153809 8.25168228 C287.41211185 8.25429003 286.37268562 8.25689778 285.30176163 8.25958455 C284.145854 8.25735382 282.98994637 8.2551231 281.79901123 8.25282478 C279.97344004 8.25516477 279.97344004 8.25516477 278.11098862 8.25755203 C274.71749022 8.2608654 271.32404667 8.25965278 267.93055153 8.25656581 C264.27679881 8.25431363 260.62305106 8.25779041 256.96929932 8.26054573 C249.80553674 8.26500438 242.64178461 8.26402654 235.47802162 8.26113309 C229.6585443 8.25887943 223.83906992 8.25856637 218.01959229 8.25965691 C217.19295885 8.25981014 216.36632541 8.25996337 215.51464248 8.26012125 C213.83562374 8.26044096 212.156605 8.26076517 210.47758627 8.26109384 C194.71432794 8.26394891 178.95107542 8.26066119 163.18781805 8.25529347 C149.64708006 8.25082541 136.10635063 8.25160134 122.56561279 8.25621223 C106.86074304 8.26155752 91.15587838 8.26367422 75.45100784 8.26059997 C73.77798716 8.2602814 72.10496648 8.25996703 70.4319458 8.25965691 C69.60867664 8.25950263 68.78540748 8.25934836 67.93719077 8.2591894 C62.12123222 8.25832411 56.3052769 8.25978739 50.48931885 8.26213646 C43.40659492 8.26493415 36.32388209 8.26419685 29.24115944 8.25885572 C25.62389643 8.25621828 22.00665194 8.25521434 18.38938904 8.25850487 C14.47709105 8.26201009 10.56482374 8.2578395 6.65252686 8.25282478 C4.91866541 8.25617087 4.91866541 8.25617087 3.14977646 8.25958455 C2.11035023 8.2569768 1.070924 8.25436905 0 8.25168228 C-0.90433147 8.25151993 -1.80866295 8.25135758 -2.74039841 8.2511903 C-4.77423096 8.12584114 -4.77423096 8.12584114 -5.77423096 7.12584114 C-5.89923096 4.12584114 -5.89923096 4.12584114 -5.77423096 1.12584114 C-4.13339314 -0.51499668 -2.26280356 0.00040624 0 0 Z " fill="#F7FAFB" transform="translate(54.77423095703125,23.87415885925293)"/>
<path d="M0 0 C1.42527763 0.00848969 1.42527763 0.00848969 2.87934875 0.01715088 C5.91617069 0.03955352 8.95181556 0.0897573 11.98828125 0.140625 C14.04620693 0.16068496 16.10415108 0.17893661 18.16210938 0.1953125 C23.20878732 0.23943113 28.25458468 0.3084857 33.30078125 0.390625 C33.96078125 2.040625 34.62078125 3.690625 35.30078125 5.390625 C34.32495117 6.87231445 34.32495117 6.87231445 32.30078125 8.390625 C29.42995968 8.65225668 26.78091632 8.73951134 23.9140625 8.68359375 C23.09705368 8.67934891 22.28004486 8.67510406 21.4382782 8.67073059 C18.82961018 8.65394191 16.22171563 8.61629019 13.61328125 8.578125 C11.8444122 8.56307837 10.07553104 8.54938992 8.30664062 8.53710938 C3.97081669 8.50658973 -0.36333565 8.44787138 -4.69921875 8.390625 C-4.69921875 15.980625 -4.69921875 23.570625 -4.69921875 31.390625 C7.84078125 31.390625 20.38078125 31.390625 33.30078125 31.390625 C33.79578125 33.865625 33.79578125 33.865625 34.30078125 36.390625 C32.30078125 38.390625 32.30078125 38.390625 28.67724609 38.61767578 C27.12203436 38.61735857 25.56680074 38.60602799 24.01171875 38.5859375 C22.7840831 38.58169266 22.7840831 38.58169266 21.53164673 38.57736206 C18.91287732 38.56615032 16.29444761 38.54104429 13.67578125 38.515625 C11.90234868 38.50559647 10.12891076 38.4964704 8.35546875 38.48828125 C4.00377499 38.46620778 -0.34766425 38.43167144 -4.69921875 38.390625 C-4.36921875 40.370625 -4.03921875 42.350625 -3.69921875 44.390625 C-2.72049805 44.38015137 -1.74177734 44.36967773 -0.73339844 44.35888672 C2.9044223 44.32263407 6.54222712 44.29970542 10.18017578 44.28076172 C11.7534453 44.27071613 13.32669621 44.25707719 14.89990234 44.23974609 C17.16378377 44.21543404 19.42741791 44.20412753 21.69140625 44.1953125 C22.39259583 44.18498993 23.0937854 44.17466736 23.81622314 44.16403198 C27.48641601 44.16319243 30.18167338 44.36949905 33.30078125 46.390625 C32.42578125 51.265625 32.42578125 51.265625 31.30078125 52.390625 C28.30611231 52.52903728 25.33618572 52.60381845 22.33984375 52.62890625 C21.43833588 52.636978 20.536828 52.64504974 19.60800171 52.65336609 C17.69636977 52.66722299 15.78471291 52.67793793 13.87304688 52.68579102 C10.94483738 52.70301292 8.01775399 52.74688495 5.08984375 52.79101562 C3.23568541 52.80114123 1.38151745 52.80965775 -0.47265625 52.81640625 C-1.35086029 52.83391434 -2.22906433 52.85142242 -3.13388062 52.86946106 C-9.19849598 52.84775502 -9.19849598 52.84775502 -11.75756836 50.51147461 C-12.85571364 48.03815648 -13.00563601 46.33608286 -12.88671875 43.640625 C-12.84611328 42.44179688 -12.84611328 42.44179688 -12.8046875 41.21875 C-12.75248047 40.31382812 -12.75248047 40.31382812 -12.69921875 39.390625 C-13.50359375 39.143125 -14.30796875 38.895625 -15.13671875 38.640625 C-17.69921875 37.390625 -17.69921875 37.390625 -18.63671875 35.390625 C-18.65734375 34.730625 -18.67796875 34.070625 -18.69921875 33.390625 C-16.56067025 31.2520765 -15.56646561 30.96407437 -12.69921875 30.390625 C-12.72278442 29.24062012 -12.72278442 29.24062012 -12.74682617 28.06738281 C-12.80920849 24.59187198 -12.84822037 21.11647899 -12.88671875 17.640625 C-12.91185547 16.4340625 -12.93699219 15.2275 -12.96289062 13.984375 C-12.97255859 12.82421875 -12.98222656 11.6640625 -12.9921875 10.46875 C-13.01575317 8.86628418 -13.01575317 8.86628418 -13.03979492 7.23144531 C-12.06383687 -0.90923418 -6.88450917 -0.15364113 0 0 Z " fill="#F4F8FA" transform="translate(79.69921875,247.609375)"/>
<path d="M0 0 C8.7765549 0.38158934 17.00939552 3.72033302 23.28515625 9.99609375 C28.69695118 17.58185758 30.11732994 23.65197201 29.28515625 32.99609375 C27.26674211 40.21861182 22.07360735 45.36872661 16.0546875 49.54296875 C6.81912304 54.64042759 -4.78006989 54.51175251 -14.9140625 52.296875 C-22.8271847 49.42488425 -28.52341458 44.25049038 -32.71484375 36.99609375 C-33.85814888 33.56617837 -33.91866026 30.79745215 -33.96484375 27.18359375 C-34.00351563 25.37955078 -34.00351563 25.37955078 -34.04296875 23.5390625 C-33.42217037 16.83591809 -29.70113465 11.36522094 -24.71484375 6.99609375 C-16.54216016 1.73632913 -9.54048082 -0.01372731 0 0 Z M-22.71484375 15.99609375 C-26.59468881 21.45386623 -26.60355404 26.49901757 -25.71484375 32.99609375 C-23.56670394 38.73484406 -19.05522886 41.34285774 -13.80078125 44.05078125 C-7.27827629 47.00667301 0.31242346 47.20306843 7.15234375 45.125 C13.37343484 42.24136355 18.18846496 38.18947633 21.28515625 31.99609375 C22.08983161 25.81158886 21.62930081 20.90397207 17.98046875 15.75390625 C13.41611674 11.0212832 7.30840921 8.32555698 0.8046875 7.79296875 C-8.66757827 7.62894683 -15.89835173 9.17960173 -22.71484375 15.99609375 Z " fill="#F8FBFC" transform="translate(248.71484375,247.00390625)"/>
<path d="M0 0 C4.10999244 0.43052296 4.94162717 1.55531104 7.51953125 4.7109375 C8.2775 5.61328125 9.03546875 6.515625 9.81640625 7.4453125 C10.6053125 8.39921875 11.39421875 9.353125 12.20703125 10.3359375 C13.88608098 12.21850841 15.57320855 14.09391566 17.26953125 15.9609375 C18.58203125 17.41927083 19.89453125 18.87760417 21.20703125 20.3359375 C26.35200685 16.17617 30.73196086 11.67695915 35.09375 6.703125 C40.7282919 0.39160487 40.7282919 0.39160487 43.89453125 0.0234375 C46.20703125 0.3359375 46.20703125 0.3359375 47.20703125 1.3359375 C47.31061904 2.85979981 47.34554263 4.38840736 47.35229492 5.91577148 C47.35867477 6.89025742 47.36505463 7.86474335 47.37162781 8.86875916 C47.37274063 9.92913895 47.37385345 10.98951874 47.375 12.08203125 C47.3799926 13.70420311 47.3799926 13.70420311 47.38508606 15.35914612 C47.39016002 17.65161716 47.39249424 19.94409562 47.39233398 22.23657227 C47.3945197 25.75484317 47.41266853 29.27280031 47.43164062 32.79101562 C47.43457453 35.01301975 47.43655934 37.23502538 47.4375 39.45703125 C47.44468552 40.51538681 47.45187103 41.57374237 47.45927429 42.66416931 C47.45619766 43.6418074 47.45312103 44.6194455 47.44995117 45.62670898 C47.45137619 46.48973129 47.45280121 47.3527536 47.45426941 48.2419281 C47.20703125 50.3359375 47.20703125 50.3359375 45.20703125 52.3359375 C40.65147569 51.78038194 40.65147569 51.78038194 39.20703125 50.3359375 C39.04706959 47.74440643 38.94764428 45.1764173 38.890625 42.58203125 C38.8698439 41.80658463 38.84906281 41.031138 38.82765198 40.23219299 C38.76207323 37.74603442 38.70323326 35.25976705 38.64453125 32.7734375 C38.60135392 31.09178546 38.55773989 29.41014456 38.51367188 27.72851562 C38.40638346 23.59776879 38.30513993 19.46691214 38.20703125 15.3359375 C37.44777344 16.16738281 36.68851562 16.99882812 35.90625 17.85546875 C34.90238011 18.95315825 33.89847185 20.05081266 32.89453125 21.1484375 C32.39501953 21.69564453 31.89550781 22.24285156 31.38085938 22.80664062 C29.99480594 24.32120233 28.60117003 25.82881497 27.20703125 27.3359375 C26.44326172 28.26986328 26.44326172 28.26986328 25.6640625 29.22265625 C24.20703125 30.3359375 24.20703125 30.3359375 21.74145508 30.72851562 C18.61092264 30.24360125 17.7436387 29.39568417 15.65625 27.0546875 C14.73295898 26.03955078 14.73295898 26.03955078 13.79101562 25.00390625 C13.16517578 24.28847656 12.53933594 23.57304687 11.89453125 22.8359375 C11.24935547 22.12050781 10.60417969 21.40507812 9.93945312 20.66796875 C8.34938677 18.90122835 6.77292951 17.12408615 5.20703125 15.3359375 C5.18721191 16.38571777 5.16739258 17.43549805 5.14697266 18.51708984 C5.07100927 22.40487011 4.98227827 26.29227153 4.88964844 30.1796875 C4.85132021 31.86353079 4.81647413 33.54745705 4.78515625 35.23144531 C4.73958838 37.64939056 4.68158202 40.06676278 4.62109375 42.484375 C4.60376694 43.61726456 4.60376694 43.61726456 4.58609009 44.77304077 C4.43477466 50.10819409 4.43477466 50.10819409 2.20703125 52.3359375 C-2.34852431 51.78038194 -2.34852431 51.78038194 -3.79296875 50.3359375 C-3.89136089 48.8065912 -3.92095414 47.27274184 -3.92236328 45.74023438 C-3.92551544 44.76252075 -3.9286676 43.78480713 -3.93191528 42.77746582 C-3.92989105 41.71394897 -3.92786682 40.65043213 -3.92578125 39.5546875 C-3.92673798 38.47086792 -3.9276947 37.38704834 -3.92868042 36.27038574 C-3.9293624 33.9737136 -3.92750686 31.67703955 -3.92333984 29.38037109 C-3.91799187 25.85119322 -3.92328425 22.32214263 -3.9296875 18.79296875 C-3.92902672 16.56770805 -3.92774557 14.34244743 -3.92578125 12.1171875 C-3.92780548 11.05367065 -3.92982971 9.99015381 -3.93191528 8.89440918 C-3.92876312 7.91669556 -3.92561096 6.93898193 -3.92236328 5.93164062 C-3.92156769 5.06639771 -3.92077209 4.20115479 -3.91995239 3.30969238 C-3.71844981 0.17766132 -3.16392512 0.38055603 0 0 Z " fill="#F9FBFD" transform="translate(284.79296875,247.6640625)"/>
<path d="M0 0 C1.32 0 2.64 0 4 0 C4 0.66 4 1.32 4 2 C4.99 2 5.98 2 7 2 C7.495 2.99 7.495 2.99 8 4 C8.99 3.34 9.98 2.68 11 2 C13.19140625 1.83984375 13.19140625 1.83984375 15.5625 1.9375 C18.91229862 2.1171232 18.91229862 2.1171232 22 1 C24.64 3.31 27.28 5.62 30 8 C30.33 6.02 30.66 4.04 31 2 C34.375 1.875 34.375 1.875 38 2 C38.99 2.99 38.99 2.99 40 4 C40.66 3.34 41.32 2.68 42 2 C46.47545859 0.46555706 49.58432723 1.66696671 54 3 C54.66 2.67 55.32 2.34 56 2 C63.00675676 1.31081081 63.00675676 1.31081081 67.0625 4.125 C69 7 69 7 69.0625 10.125 C67.81688745 13.49548101 67.25793799 14.49633631 64 16 C60.14098478 16.42013472 56.70987204 16.23662401 53 15 C52.34 15.33 51.68 15.66 51 16 C49.50350638 16.12005453 48.00125207 16.17531451 46.5 16.1875 C45.30890625 16.20876953 45.30890625 16.20876953 44.09375 16.23046875 C42 16 42 16 40 14 C39.34 14.66 38.68 15.32 38 16 C34.75 16.5 34.75 16.5 31 16 C28.60729379 14.20677356 26.96250048 12.29756154 25 10 C24.67 11.98 24.34 13.96 24 16 C21.89611431 16.05402274 19.79183286 16.09280256 17.6875 16.125 C15.92986328 16.15980469 15.92986328 16.15980469 14.13671875 16.1953125 C11 16 11 16 8 14 C7.67 14.66 7.34 15.32 7 16 C3.04 16 -0.92 16 -5 16 C-5 15.01 -5 14.02 -5 13 C-5.66 13 -6.32 13 -7 13 C-6.125 7.25 -6.125 7.25 -5 5 C-6.32 5 -7.64 5 -9 5 C-9 8.63 -9 12.26 -9 16 C-10.32 15.67 -11.64 15.34 -13 15 C-13 11.7 -13 8.4 -13 5 C-13.99 5 -14.98 5 -16 5 C-16 8.63 -16 12.26 -16 16 C-21.28 16 -26.56 16 -32 16 C-32.33 15.34 -32.66 14.68 -33 14 C-33.66 14.66 -34.32 15.32 -35 16 C-39.66088476 16.78749723 -43.08070088 16.60035861 -47.0625 14 C-47.701875 13.34 -48.34125 12.68 -49 12 C-49.33 12.33 -49.66 12.66 -50 13 C-51.99958364 13.04080783 -54.00045254 13.04254356 -56 13 C-56 13.99 -56 14.98 -56 16 C-57.32 16 -58.64 16 -60 16 C-60 11.38 -60 6.76 -60 2 C-58.4325 1.979375 -56.865 1.95875 -55.25 1.9375 C-53.92742187 1.92009766 -53.92742187 1.92009766 -52.578125 1.90234375 C-50 2 -50 2 -47.796875 2.56640625 C-45.91327065 3.22519495 -45.91327065 3.22519495 -44 2 C-42.50350638 1.87994547 -41.00125207 1.82468549 -39.5 1.8125 C-38.7059375 1.79832031 -37.911875 1.78414063 -37.09375 1.76953125 C-35 2 -35 2 -33 4 C-32.67 3.34 -32.34 2.68 -32 2 C-30.68 2 -29.36 2 -28 2 C-28 5.63 -28 9.26 -28 13 C-25.36 13 -22.72 13 -20 13 C-20 9.37 -20 5.74 -20 2 C-18.64003906 1.93941406 -17.28007812 1.87882813 -15.87890625 1.81640625 C-14.10675903 1.73201829 -12.33462423 1.64736942 -10.5625 1.5625 C-9.66466797 1.52318359 -8.76683594 1.48386719 -7.84179688 1.44335938 C-6.98779297 1.40146484 -6.13378906 1.35957031 -5.25390625 1.31640625 C-4.06776733 1.26141968 -4.06776733 1.26141968 -2.85766602 1.20532227 C-0.98598559 1.19436743 -0.98598559 1.19436743 0 0 Z M-56 5 C-56 6.32 -56 7.64 -56 9 C-54.35 9 -52.7 9 -51 9 C-51 8.01 -51 7.02 -51 6 C-52.65 5.67 -54.3 5.34 -56 5 Z M-44 6 C-44.83333333 7.91666667 -44.83333333 7.91666667 -45 10 C-44.67 10.66 -44.34 11.32 -44 12 C-41.11304814 12.84239972 -41.11304814 12.84239972 -38 13 C-37.01 12.34 -36.02 11.68 -35 11 C-35.33 9.35 -35.66 7.7 -36 6 C-39.28696233 5.20046862 -40.71023192 4.90341064 -44 6 Z M-2 5 C-2 6.32 -2 7.64 -2 9 C0.64 9 3.28 9 6 9 C6.33 7.68 6.66 6.36 7 5 C4.03 5 1.06 5 -2 5 Z M10 7 C10.33 8.65 10.66 10.3 11 12 C15.53140653 12.93380961 15.53140653 12.93380961 20 12 C20 10.35 20 8.7 20 7 C15.88832698 4.73149075 14.11452026 4.2569865 10 7 Z M42 7 C42.33 8.65 42.66 10.3 43 12 C45.91482778 12.80967438 47.46113217 13.21845993 50.3125 12.0625 C50.869375 11.711875 51.42625 11.36125 52 11 C51.67 9.35 51.34 7.7 51 6 C46.25923451 4.81301999 46.25923451 4.81301999 42 7 Z M55 7 C55.33 8.65 55.66 10.3 56 12 C58.85778033 12.68493373 58.85778033 12.68493373 62 13 C62.99 12.34 63.98 11.68 65 11 C64.67 9.35 64.34 7.7 64 6 C59.25923451 4.81301999 59.25923451 4.81301999 55 7 Z " fill="#F2F7FA" transform="translate(194,0)"/>
<path d="M0 0 C1.71304195 2.49169738 1.70419181 4.03727371 1.375 7 C-1.63051497 7.91908542 -3.02992835 8.31254198 -5.87109375 6.8203125 C-6.59425781 6.26085937 -7.31742188 5.70140625 -8.0625 5.125 C-11.72664294 2.53006598 -14.04021866 1.17979535 -18.625 1 C-19.54539063 0.96261719 -20.46578125 0.92523438 -21.4140625 0.88671875 C-27.20888656 0.7501162 -32.20308671 0.87838176 -37.625 3 C-39.90556299 4.88374462 -39.90556299 4.88374462 -40.0625 7.9375 C-39.95947248 11.07376397 -39.95947248 11.07376397 -37.7421875 12.6015625 C-32.58583306 14.91481424 -27.12689184 15.14114354 -21.54882812 15.72851562 C-14.35004464 16.60062631 -8.64389906 18.35846332 -3.125 23.1875 C-0.97802984 27.21306904 -0.6251466 30.54263828 -1.625 35 C-4.55862595 40.3904081 -8.79029074 43.23727406 -14.625 45 C-17.53333972 45.46914269 -20.36942671 45.57132764 -23.3125 45.5625 C-24.48800415 45.5610498 -24.48800415 45.5610498 -25.68725586 45.55957031 C-32.76489044 45.3478431 -39.04122646 43.55051451 -44.625 39 C-45.5078125 36.91015625 -45.5078125 36.91015625 -45.625 35 C-44.4375 33.1875 -44.4375 33.1875 -42.625 32 C-39.62457059 32.47805584 -37.28978063 33.65440569 -34.625 35.0625 C-27.88709153 38.11404863 -20.91972817 38.06101416 -13.9375 35.8125 C-11.46021096 34.1713963 -11.46021096 34.1713963 -10.5625 31.5 C-10.37886222 28.99644191 -10.37886222 28.99644191 -11.84765625 27.4140625 C-13.97272444 25.72334891 -15.46070729 25.35076656 -18.125 24.875 C-19.011875 24.71386719 -19.89875 24.55273438 -20.8125 24.38671875 C-23.59145824 24.00461199 -26.32494262 23.83466211 -29.125 23.6875 C-36.21777009 23.11404199 -42.03378331 20.46481588 -47.1875 15.5625 C-49.6538587 11.16594754 -49.99658116 8.38723635 -48.6875 3.5 C-46.57076873 -0.93036777 -42.7486552 -3.52248135 -38.625 -6 C-25.38481094 -10.41339635 -11.03415795 -8.40697749 0 0 Z " fill="#F8FBFC" transform="translate(163.625,255)"/>
<path d="M0 0 C0.859375 2.54296875 0.859375 2.54296875 1 5 C0.34 5.66 -0.32 6.32 -1 7 C-4.55019928 6.62598235 -7.41522131 5.43503889 -10.625 3.9375 C-17.51287082 1.12905267 -24.32313856 0.82048882 -31.375 3.3125 C-32.57125 3.869375 -33.7675 4.42625 -35 5 C-35.9075 5.4125 -36.815 5.825 -37.75 6.25 C-41.66674746 9.29635913 -43.63020266 12.63927352 -44.38671875 17.46875 C-44.63480893 23.14915959 -43.86929112 26.6078317 -40 31 C-33.62743066 37.02810614 -27.63295933 38.56032991 -19.0703125 38.3671875 C-15.1019048 37.89259421 -11.85143041 36.67097984 -8.25390625 34.97265625 C-5.82090965 33.92271491 -3.62541691 33.34625699 -1 33 C-0.01 33.495 -0.01 33.495 1 34 C1.5 36.1875 1.5 36.1875 1 39 C-1.43913933 41.08899524 -4.13207561 42.57354546 -7 44 C-7.72703125 44.36738281 -8.4540625 44.73476563 -9.203125 45.11328125 C-18.09111226 47.93112079 -29.54654517 47.34708148 -37.875 43.3125 C-44.22489919 39.53616719 -50.29361665 34.42225762 -52.59375 27.11328125 C-53.94635814 20.07711773 -53.39685761 13.34171401 -50 7 C-45.33021468 0.19545568 -38.09157537 -4.804672 -29.9296875 -6.40625 C-20.20011103 -7.78278172 -7.54825429 -7.09022915 0 0 Z " fill="#F8FBFC" transform="translate(218,254)"/>
<path d="M0 0 C4.44995051 2.22497525 6.60084691 4.44633995 10 8 C10.33 5.69 10.66 3.38 11 1 C12.32 1.33 13.64 1.66 15 2 C15 3.98 15 5.96 15 8 C15.66 8 16.32 8 17 8 C17.309375 7.21625 17.61875 6.4325 17.9375 5.625 C19 3 19 3 20 1 C21.32 1 22.64 1 24 1 C25.75 3.5 25.75 3.5 27 6 C27.53625 5.175 28.0725 4.35 28.625 3.5 C30.89002495 1.14198283 32.11245497 0.98917478 35.44921875 0.66796875 C38.97750966 0.68580642 42.47845592 0.78556227 46 1 C46 1.66 46 2.32 46 3 C46.99 2.34 47.98 1.68 49 1 C51.15625 0.734375 51.15625 0.734375 53.5 0.75 C54.2734375 0.74484375 55.046875 0.7396875 55.84375 0.734375 C58 1 58 1 61 3 C61.33 2.01 61.66 1.02 62 0 C65.81684226 1.55500981 68.19195732 4.03595495 71 7 C71.33 5.02 71.66 3.04 72 1 C73.32 1 74.64 1 76 1 C76 3.31 76 5.62 76 8 C78.33524782 5.74259377 80.18705073 3.7194239 82 1 C83.75 1.125 83.75 1.125 86 2 C88.25 5.0625 88.25 5.0625 90 8 C90.33 5.69 90.66 3.38 91 1 C92.32 1 93.64 1 95 1 C95 4.63 95 8.26 95 12 C97.97 12 100.94 12 104 12 C104 12.99 104 13.98 104 15 C99.05 15 94.1 15 89 15 C88.505 13.515 88.505 13.515 88 12 C85.03 12 82.06 12 79 12 C78.67 12.99 78.34 13.98 78 15 C75.375 15.4375 75.375 15.4375 72 15 C69.66877878 12.9050512 67.82671379 10.53926173 66 8 C65.67 10.31 65.34 12.62 65 15 C64.01 15 63.02 15 62 15 C61.505 14.01 61.505 14.01 61 13 C60.01 13.66 59.02 14.32 58 15 C55.80859375 15.265625 55.80859375 15.265625 53.4375 15.25 C52.25994141 15.25773437 52.25994141 15.25773437 51.05859375 15.265625 C49 15 49 15 47 13 C46.67 13.66 46.34 14.32 46 15 C39.73 15 33.46 15 27 15 C26.67 14.34 26.34 13.68 26 13 C21.9899066 12.82135369 21.9899066 12.82135369 18 13 C17.34 13.66 16.68 14.32 16 15 C13.8125 15.5625 13.8125 15.5625 11 15 C8.43722133 12.86789575 6.2074134 10.49367739 4 8 C3.67 10.31 3.34 12.62 3 15 C2.01 15 1.02 15 0 15 C0 10.05 0 5.1 0 0 Z M31 7 C31.63979849 9.03241727 31.63979849 9.03241727 33 11 C36.3186024 12.13531135 38.68989426 12.10336858 42 11 C42 9.35 42 7.7 42 6 C37.29223903 3.40261464 35.15006416 3.56546414 31 7 Z M49 6 C49.33 7.65 49.66 9.3 50 11 C52.3015411 11.77802187 52.3015411 11.77802187 55 12 C57.30504044 10.66846734 57.30504044 10.66846734 59 9 C58.36020151 6.96758273 58.36020151 6.96758273 57 5 C53.19973591 3.63580263 52.46462908 3.69024728 49 6 Z M21 6 C21 6.66 21 7.32 21 8 C21.66 7.67 22.32 7.34 23 7 C22.34 6.67 21.68 6.34 21 6 Z M83 6 C82.67 6.66 82.34 7.32 82 8 C82.99 7.67 83.98 7.34 85 7 C84.34 6.67 83.68 6.34 83 6 Z " fill="#F3F7FA" transform="translate(266,1)"/>
<path d="M0 0 C2.71141055 1.80760703 4.82721235 4.01552971 7.0625 6.375 C7.7225 4.395 8.3825 2.415 9.0625 0.375 C15.31045675 0.34972876 21.55840041 0.33216656 27.80639648 0.32006836 C29.93368014 0.31502702 32.06096031 0.30819409 34.18823242 0.29956055 C37.23877826 0.28748621 40.28927845 0.28176986 43.33984375 0.27734375 C44.77577126 0.26960182 44.77577126 0.26960182 46.2407074 0.26170349 C47.56196373 0.26159019 47.56196373 0.26159019 48.90991211 0.26147461 C49.68934677 0.259254 50.46878143 0.25703339 51.27183533 0.25474548 C53.0625 0.375 53.0625 0.375 54.0625 1.375 C54.13429964 2.89428038 54.14642007 4.41667482 54.125 5.9375 C54.11597656 6.76378906 54.10695312 7.59007812 54.09765625 8.44140625 C54.08605469 9.07949219 54.07445312 9.71757812 54.0625 10.375 C56.3725 10.375 58.6825 10.375 61.0625 10.375 C61.0625 7.075 61.0625 3.775 61.0625 0.375 C65.47894598 0.25891873 69.89500017 0.1877868 74.3125 0.125 C76.19388672 0.07472656 76.19388672 0.07472656 78.11328125 0.0234375 C79.31855469 0.01054687 80.52382812 -0.00234375 81.765625 -0.015625 C82.87583008 -0.03657227 83.98603516 -0.05751953 85.12988281 -0.07910156 C88.73724074 0.47948033 89.88410236 1.4977485 92.0625 4.375 C92.65702734 7.94216403 92.50160956 9.64951464 90.625 12.75 C86.83615246 15.1526838 83.42776609 15.15193727 79.0625 14.375 C76.5 12.8125 76.5 12.8125 75.0625 10.375 C74.8125 6.625 74.8125 6.625 75.0625 3.375 C74.0725 3.375 73.0825 3.375 72.0625 3.375 C72.0625 7.005 72.0625 10.635 72.0625 14.375 C70.7425 14.375 69.4225 14.375 68.0625 14.375 C68.0625 10.745 68.0625 7.115 68.0625 3.375 C67.0725 3.375 66.0825 3.375 65.0625 3.375 C65.124375 4.633125 65.18625 5.89125 65.25 7.1875 C65.3783253 9.79678116 65.35659879 10.95952711 63.83203125 13.11328125 C61.60311834 14.70255028 60.28142792 14.77718928 57.5625 14.75 C56.7890625 14.75773437 56.015625 14.76546875 55.21875 14.7734375 C52.52651459 14.27595922 51.63704083 13.59935134 50.0625 11.375 C49.67171444 8.64992202 49.92633047 6.14378044 50.0625 3.375 C49.0725 3.375 48.0825 3.375 47.0625 3.375 C47.0625 7.005 47.0625 10.635 47.0625 14.375 C45.7425 14.375 44.4225 14.375 43.0625 14.375 C43.0625 10.745 43.0625 7.115 43.0625 3.375 C41.7425 3.375 40.4225 3.375 39.0625 3.375 C39.5575 4.365 39.5575 4.365 40.0625 5.375 C40.29583333 11.90833333 40.29583333 11.90833333 39.0625 14.375 C38.0725 14.375 37.0825 14.375 36.0625 14.375 C36.0625 10.745 36.0625 7.115 36.0625 3.375 C34.7425 3.375 33.4225 3.375 32.0625 3.375 C32.0625 7.005 32.0625 10.635 32.0625 14.375 C30.7425 14.375 29.4225 14.375 28.0625 14.375 C28.0625 10.745 28.0625 7.115 28.0625 3.375 C26.4125 4.035 24.7625 4.695 23.0625 5.375 C21.7425 5.375 20.4225 5.375 19.0625 5.375 C19.866875 5.601875 20.67125 5.82875 21.5 6.0625 C24.0625 7.375 24.0625 7.375 25 9.875 C25.020625 10.7 25.04125 11.525 25.0625 12.375 C22.22667185 15.21082815 20.20445524 14.74210656 16.25 14.8125 C9.74359696 14.73924469 9.74359696 14.73924469 7.09765625 13.32421875 C5.8125 12 5.8125 12 4.0625 9.375 C3.4025 8.715 2.7425 8.055 2.0625 7.375 C1.7325 9.685 1.4025 11.995 1.0625 14.375 C-1.2475 14.375 -3.5575 14.375 -5.9375 14.375 C-5.9375 9.755 -5.9375 5.135 -5.9375 0.375 C-1.9375 -0.625 -1.9375 -0.625 0 0 Z M79.75 4.8125 C79.193125 5.328125 78.63625 5.84375 78.0625 6.375 C78.70229849 8.40741727 78.70229849 8.40741727 80.0625 10.375 C82.47132687 11.37343776 82.47132687 11.37343776 85.0625 11.375 C86.0525 10.715 87.0425 10.055 88.0625 9.375 C87.7325 7.725 87.4025 6.075 87.0625 4.375 C83.26514921 3.20120426 83.26514921 3.20120426 79.75 4.8125 Z M12.0625 7.375 C12.0625 8.365 12.0625 9.355 12.0625 10.375 C14.7025 10.705 17.3425 11.035 20.0625 11.375 C20.3925 10.715 20.7225 10.055 21.0625 9.375 C19.94875 9.230625 18.835 9.08625 17.6875 8.9375 C14.0625 8.375 14.0625 8.375 12.0625 7.375 Z " fill="#F2F7FA" transform="translate(38.9375,1.625)"/>
<path d="M0 0 C0.66 0 1.32 0 2 0 C2.03758423 1.75642822 2.03758423 1.75642822 2.07592773 3.54833984 C2.16993703 7.88325378 2.27017341 12.21800504 2.37231445 16.55273438 C2.41568789 18.43062542 2.45736118 20.30855652 2.49731445 22.18652344 C2.55495876 24.8822844 2.61866981 27.57784327 2.68359375 30.2734375 C2.70866249 31.53756973 2.70866249 31.53756973 2.73423767 32.82723999 C2.73236144 37.0486661 2.73236144 37.0486661 4 41 C2.68 40.34 1.36 39.68 0 39 C-0.16743288 33.76743778 -0.328011 28.53472773 -0.48217773 23.30175781 C-0.5356202 21.52077543 -0.59095129 19.73984869 -0.64819336 17.95898438 C-0.73004181 15.40246583 -0.8051453 12.84582555 -0.87890625 10.2890625 C-0.90594131 9.49005524 -0.93297638 8.69104797 -0.96083069 7.86782837 C-1.11387171 2.22774341 -1.11387171 2.22774341 0 0 Z " fill="#EBF3F7" transform="translate(324,259)"/>
<path d="M0 0 C2.97 0 5.94 0 9 0 C9.33 1.32 9.66 2.64 10 4 C8.1128125 3.7525 8.1128125 3.7525 6.1875 3.5 C3.73543415 3.17841759 1.48349306 3 -1 3 C-0.67 2.01 -0.34 1.02 0 0 Z M10 0 C13.96 0 17.92 0 22 0 C21.67 0.66 21.34 1.32 21 2 C19.68 2 18.36 2 17 2 C17 5.63 17 9.26 17 13 C16.34 13 15.68 13 15 13 C15 9.37 15 5.74 15 2 C13.35 1.67 11.7 1.34 10 1 C10 0.67 10 0.34 10 0 Z " fill="#FAFCFD" transform="translate(53,2)"/>
<path d="M0 0 C0.66 0.33 1.32 0.66 2 1 C2 1.99 2 2.98 2 4 C2.99 3.67 3.98 3.34 5 3 C4.5359375 4.0828125 4.5359375 4.0828125 4.0625 5.1875 C3.07439461 7.80307309 2.4712246 10.25118982 2 13 C1.34 13 0.68 13 0 13 C-1.25069801 10.49860398 -1.13302467 8.72607309 -1.125 5.9375 C-1.12757813 5.03902344 -1.13015625 4.14054688 -1.1328125 3.21484375 C-1 1 -1 1 0 0 Z " fill="#F8FBFC" transform="translate(230,3)"/>
<path d="M0 0 C1.37478516 0.01740234 1.37478516 0.01740234 2.77734375 0.03515625 C3.69644531 0.04417969 4.61554688 0.05320313 5.5625 0.0625 C6.27277344 0.07410156 6.98304688 0.08570312 7.71484375 0.09765625 C7.38484375 0.75765625 7.05484375 1.41765625 6.71484375 2.09765625 C5.39484375 2.09765625 4.07484375 2.09765625 2.71484375 2.09765625 C2.71484375 5.72765625 2.71484375 9.35765625 2.71484375 13.09765625 C2.05484375 13.09765625 1.39484375 13.09765625 0.71484375 13.09765625 C0.71484375 9.46765625 0.71484375 5.83765625 0.71484375 2.09765625 C-0.60515625 1.76765625 -1.92515625 1.43765625 -3.28515625 1.09765625 C-2.28515625 0.09765625 -2.28515625 0.09765625 0 0 Z " fill="#FAFCFD" transform="translate(181.28515625,1.90234375)"/>
<path d="M0 0 C0.99 0.495 0.99 0.495 2 1 C2 1.66 2 2.32 2 3 C4.64 2.67 7.28 2.34 10 2 C10.33 2.66 10.66 3.32 11 4 C9.35 4 7.7 4 6 4 C6.66 4.66 7.32 5.32 8 6 C7.01 6.33 6.02 6.66 5 7 C5.33 7.66 5.66 8.32 6 9 C3.83125748 8.49396008 2.00032373 8.00016187 0 7 C0 4.69 0 2.38 0 0 Z " fill="#E6F0F5" transform="translate(50,2)"/>
<path d="M0 0 C0.33 0 0.66 0 1 0 C1.33 3.3 1.66 6.6 2 10 C4.64 10 7.28 10 10 10 C10 10.66 10 11.32 10 12 C7.03 12 4.06 12 1 12 C-0.79760213 8.18009548 -1.28743526 5.21571713 -1 1 C-0.67 0.67 -0.34 0.34 0 0 Z " fill="#FDFEFE" transform="translate(358,4)"/>
<path d="M0 0 C4 1 4 1 7 2 C7 5.63 7 9.26 7 13 C6.67 13 6.34 13 6 13 C6 9.7 6 6.4 6 3 C5.01 3 4.02 3 3 3 C3 6.63 3 10.26 3 14 C2.67 14 2.34 14 2 14 C1.34 9.38 0.68 4.76 0 0 Z " fill="#DBEAF0" transform="translate(175,2)"/>
<path d="M0 0 C0.66 0.33 1.32 0.66 2 1 C-1.66666667 4.66666667 -5.33333333 8.33333333 -9 12 C-7.18690951 6.71181939 -4.67111564 3.11407709 0 0 Z " fill="#EFF5F8" transform="translate(176,253)"/>
<path d="M0 0 C0.66 0.33 1.32 0.66 2 1 C-0.97 3.97 -3.94 6.94 -7 10 C-7.66 9.67 -8.32 9.34 -9 9 C-7.87895467 7.68412059 -6.75303035 6.37239647 -5.625 5.0625 C-4.99851563 4.33160156 -4.37203125 3.60070312 -3.7265625 2.84765625 C-2 1 -2 1 0 0 Z " fill="#EDF4F8" transform="translate(226,253)"/>
<path d="M0 0 C1.26026798 2.52053595 0.91874445 3.8542098 0.5625 6.625 C0.46066406 7.44226563 0.35882813 8.25953125 0.25390625 9.1015625 C0.17011719 9.72804688 0.08632812 10.35453125 0 11 C-0.33 11 -0.66 11 -1 11 C-1.33 9.35 -1.66 7.7 -2 6 C-2.99 5.67 -3.98 5.34 -5 5 C-5 4.34 -5 3.68 -5 3 C-4.34 3 -3.68 3 -3 3 C-2.67 2.34 -2.34 1.68 -2 1 C-1.34 0.67 -0.68 0.34 0 0 Z " fill="#E8F1F5" transform="translate(215,1)"/>
<path d="M0 0 C1.99825961 2.99738941 2.27550398 3.63347508 2.25 7 C2.25515625 7.680625 2.2603125 8.36125 2.265625 9.0625 C2 11 2 11 0 14 C-1.09321611 9.49048355 -2.13999677 4.27999354 0 0 Z " fill="#E9F2F6" transform="translate(311,2)"/>
<path d="M0 0 C1.98 0 3.96 0 6 0 C6 1.32 6 2.64 6 4 C4.02 4 2.04 4 0 4 C0 2.68 0 1.36 0 0 Z " fill="#E9F2F6" transform="translate(50,12)"/>
<path d="M0 0 C1.65 0.99 3.3 1.98 5 3 C4.67 3.99 4.34 4.98 4 6 C1.5625 5.625 1.5625 5.625 -1 5 C-1.33 4.34 -1.66 3.68 -2 3 C-1.01 3 -0.02 3 1 3 C0.67 2.01 0.34 1.02 0 0 Z " fill="#E8F1F6" transform="translate(117,10)"/>
</svg>
